<svg xmlns="http://www.w3.org/2000/svg" width="51" height="75" viewBox="0 0 51 75"><g><g transform="rotate(-20.22 26 38)"><g><path fill="#18a0fb" d="M27.04 1.84c.6 1.9 1 3.8 1.2 5.7.2 1.8.2 3.6.2 5.4v16.9c0 1.8-.1 3.5-.2 5.3-.2 3.7-.3 7.5-.3 11.2-.1 3.7-.1 7.4-.1 11.1 0 1.8 0 3.7-.2 5.5-.1.9-.2 1.7-.3 2.6-.1.4-.2.8-.2 1.2-.1.6-.2 1.2-.5 1.7-1.1 1.9-3 3.4-5.2 4-1.8.5-3.7.5-5.6.1-1-.2-2-.5-2.8-1-.7-.4-1.4-.8-1.9-1.3s-.9-.9-1.2-1.4c-.4-.5-.7-1-.9-1.6-.5-1.2-.9-2.6-1.1-3.9-.1-1-.2-1.9-.2-2.8 0-.6 0-1.2.1-1.7.1-.6.3-1.2.5-1.8.1-.4.2-.9.4-1.3.3-.9.9-1.8 1.4-2.6.6-.8 1.3-1.5 2.1-2.2.7-.6 1.5-1.1 2.3-1.5.1-.1.2-.1.3-.2l-1.2-.3c-.9-.3-1.7-.6-2.5-1-1-.6-2-1.2-2.7-2.2-.6-.7-1.1-1.7-1.4-2.6-.3-.8-.5-1.7-.5-2.6-.1-.9 0-1.8.2-2.7.2-1 .5-1.9.9-2.8.5-1 1.1-2.1 1.9-2.9.5-.5 1-.9 1.6-1.3.3-.2.5-.3.8-.5.6-.3 1.1-.6 1.7-.8-.2-.1-.4-.1-.6-.2-1.1-.5-2.1-.9-3-1.6-1.4-1-2.7-2.4-3.3-4.1-.4-1-.6-2.2-.6-3.3 0-1.4.2-2.7.6-3.9.3-.8.7-1.6 1.1-2.4.5-.8.9-1.6 1.5-2.3.9-1.1 2-2.1 3.1-3 .7-.5 1.4-1 2.2-1.5 1.8-1.1 3.7-1.6 5.7-1.9.9-.1 1.7-.1 2.6-.1.9.1 1.7.1 2.5.4l-.6.3c-1.2.7-2.5 1.4-3.7 2.1-1.4.8-2.9 1.7-4.4 2.5.2 0 .3-.1.5-.2-.5.3-1.1.6-1.6 1l-1.5 1.2c-.8.7-1.6 1.5-2.2 2.4-.6 1-1.1 2-1.5 3.1-.1.8-.2 1.5-.3 2.3 0 .6 0 1.1.1 1.6.1.4.2.8.4 1.2.2.4.4.7.7 1 .2.3.4.5.7.7.3.3.6.5.9.7.3.2.7.4 1 .5.4.2.8.4 1.2.5l2.7.6c.5.1.9.1 1.4.2.8.1 1.9.3 2.4 1.1.4.7.3 1.3-.1 1.9-.3.4-.8.6-1.3.7l-.9.3c-.6.2-1.1.3-1.6.5-.6.1-1.2.3-1.8.5-.5.2-.9.4-1.4.6-.6.4-1.2.8-1.8 1.3-.4.4-.7.8-1 1.2-.4.8-.7 1.6-1 2.4-.2.8-.3 1.5-.4 2.3 0 .6.1 1.1.2 1.7.1.5.3 1 .5 1.4.2.3.4.7.7 1 .3.2.6.5.9.7.5.2 1 .5 1.5.7.6.2 1.1.4 1.7.6.8.3 1.7.5 2.5.6.7.1 1.3.1 2 .2.7-.2 1.3-.3 2-.3.5 0 1.1 0 1.6.1.2 0 .5.1.7.2.1 0 .1.1.2.1v-1.7l.3-11.5c.1-3.8.1-7.5.1-11.3v-11.1c0-1.9 0-3.8.3-5.7.2-1.8.6-3.6 1-5.4.2.5.3 1 .5 1.4zm-2.3 47.9c-.5.2-1 .3-1.5.3s-.9 0-1.4.1c-.8.2-1.6.5-2.4.9-.8.4-1.5.8-2.2 1.2-.8.4-1.6.9-2.3 1.5-.4.4-.8.9-1.2 1.4l-.6 1.2c-.3.5-.4.9-.6 1.4-.3.7-.4 1.4-.5 2.2 0 .7 0 1.3.1 2 .1.6.2 1.1.3 1.7.2.9.4 1.8.8 2.6.2.4.4.8.7 1.1.3.3.7.6 1 .8.6.3 1.1.6 1.7.8.8.2 1.5.3 2.3.4.7 0 1.4-.1 2.1-.2.4-.1.8-.2 1.2-.4.5-.3 1-.6 1.4-1 .3-.3.6-.6.8-.9 0-.1.1-.1.1-.2v-.1c0-.9 0-1.9.1-2.9.1-.9.2-1.9.2-2.8v-7.4-3.7c-.1.1-.2.1-.1 0z"/><path fill="none" stroke="#18a0fb" stroke-miterlimit="20" d="M27.04 1.84c.6 1.9 1 3.8 1.2 5.7.2 1.8.2 3.6.2 5.4v16.9c0 1.8-.1 3.5-.2 5.3-.2 3.7-.3 7.5-.3 11.2-.1 3.7-.1 7.4-.1 11.1 0 1.8 0 3.7-.2 5.5-.1.9-.2 1.7-.3 2.6-.1.4-.2.8-.2 1.2-.1.6-.2 1.2-.5 1.7-1.1 1.9-3 3.4-5.2 4-1.8.5-3.7.5-5.6.1-1-.2-2-.5-2.8-1-.7-.4-1.4-.8-1.9-1.3s-.9-.9-1.2-1.4c-.4-.5-.7-1-.9-1.6-.5-1.2-.9-2.6-1.1-3.9-.1-1-.2-1.9-.2-2.8 0-.6 0-1.2.1-1.7.1-.6.3-1.2.5-1.8.1-.4.2-.9.4-1.3.3-.9.9-1.8 1.4-2.6.6-.8 1.3-1.5 2.1-2.2.7-.6 1.5-1.1 2.3-1.5.1-.1.2-.1.3-.2l-1.2-.3c-.9-.3-1.7-.6-2.5-1-1-.6-2-1.2-2.7-2.2-.6-.7-1.1-1.7-1.4-2.6-.3-.8-.5-1.7-.5-2.6-.1-.9 0-1.8.2-2.7.2-1 .5-1.9.9-2.8.5-1 1.1-2.1 1.9-2.9.5-.5 1-.9 1.6-1.3.3-.2.5-.3.8-.5.6-.3 1.1-.6 1.7-.8-.2-.1-.4-.1-.6-.2-1.1-.5-2.1-.9-3-1.6-1.4-1-2.7-2.4-3.3-4.1-.4-1-.6-2.2-.6-3.3 0-1.4.2-2.7.6-3.9.3-.8.7-1.6 1.1-2.4.5-.8.9-1.6 1.5-2.3.9-1.1 2-2.1 3.1-3 .7-.5 1.4-1 2.2-1.5 1.8-1.1 3.7-1.6 5.7-1.9.9-.1 1.7-.1 2.6-.1.9.1 1.7.1 2.5.4l-.6.3c-1.2.7-2.5 1.4-3.7 2.1-1.4.8-2.9 1.7-4.4 2.5.2 0 .3-.1.5-.2-.5.3-1.1.6-1.6 1l-1.5 1.2c-.8.7-1.6 1.5-2.2 2.4-.6 1-1.1 2-1.5 3.1-.1.8-.2 1.5-.3 2.3 0 .6 0 1.1.1 1.6.1.4.2.8.4 1.2.2.4.4.7.7 1 .2.3.4.5.7.7.3.3.6.5.9.7.3.2.7.4 1 .5.4.2.8.4 1.2.5l2.7.6c.5.1.9.1 1.4.2.8.1 1.9.3 2.4 1.1.4.7.3 1.3-.1 1.9-.3.4-.8.6-1.3.7l-.9.3c-.6.2-1.1.3-1.6.5-.6.1-1.2.3-1.8.5-.5.2-.9.4-1.4.6-.6.4-1.2.8-1.8 1.3-.4.4-.7.8-1 1.2-.4.8-.7 1.6-1 2.4-.2.8-.3 1.5-.4 2.3 0 .6.1 1.1.2 1.7.1.5.3 1 .5 1.4.2.3.4.7.7 1 .3.2.6.5.9.7.5.2 1 .5 1.5.7.6.2 1.1.4 1.7.6.8.3 1.7.5 2.5.6.7.1 1.3.1 2 .2.7-.2 1.3-.3 2-.3.5 0 1.1 0 1.6.1.2 0 .5.1.7.2.1 0 .1.1.2.1v-1.7l.3-11.5c.1-3.8.1-7.5.1-11.3v-11.1c0-1.9 0-3.8.3-5.7.2-1.8.6-3.6 1-5.4.2.5.3 1 .5 1.4zm-2.3 47.9c-.5.2-1 .3-1.5.3s-.9 0-1.4.1c-.8.2-1.6.5-2.4.9-.8.4-1.5.8-2.2 1.2-.8.4-1.6.9-2.3 1.5-.4.4-.8.9-1.2 1.4l-.6 1.2c-.3.5-.4.9-.6 1.4-.3.7-.4 1.4-.5 2.2 0 .7 0 1.3.1 2 .1.6.2 1.1.3 1.7.2.9.4 1.8.8 2.6.2.4.4.8.7 1.1.3.3.7.6 1 .8.6.3 1.1.6 1.7.8.8.2 1.5.3 2.3.4.7 0 1.4-.1 2.1-.2.4-.1.8-.2 1.2-.4.5-.3 1-.6 1.4-1 .3-.3.6-.6.8-.9 0-.1.1-.1.1-.2v-.1c0-.9 0-1.9.1-2.9.1-.9.2-1.9.2-2.8v-7.4-3.7c-.1.1-.2.1-.1 0z"/></g><g><path fill="#18a0fb" d="M35.84 2.745h.3c.9 0 1.8 0 2.7.2 1.3.3 2.5.6 3.6 1.2 1.3.6 2.5 1.4 3.5 2.3.9.9 1.8 1.7 2.5 2.8.4.7.7 1.4 1.1 2.1.3.5.5 1 .6 1.6.2.7.2 1.4.2 2.1 0 .6-.1 1.2-.2 1.8-.3 1.4-.8 2.8-1.6 4-.6 1-1.3 1.9-2 2.8-.7.7-1.3 1.6-2 2.3-.5.6-1 1.1-1.6 1.5-.4.3-.8.6-1.3.9-.9.5-1.9.9-2.9 1.2-1.1.2-2.2.5-3.3.5-1 0-1.9 0-2.9-.3-.9-.3-1.8-.8-2.6-1.4.8 0 1.5 0 2.3-.2 1.4-.3 2.6-.9 3.9-1.4 1-.5 2.1-.9 3.2-1.4.8-.4 1.5-.9 2.1-1.5.5-.5 1-1.1 1.5-1.7.8-1 1.6-2 2.3-3.1.5-.8.9-1.6 1.2-2.5.1-.6.2-1.3.3-1.9 0-.2-.1-.5-.1-.8-.2-.7-.5-1.4-.8-2-.4-.6-.7-1.2-1.2-1.7-.9-1-1.9-1.9-3-2.6-.7-.5-1.5-.8-2.3-1.1-.8-.3-1.6-.5-2.4-.5h-.8c-1.6 0-3.1-.1-4.7-.3-1.6-.2-3.1-.3-4.6-.5 1.5-.7 2.9-1.4 4.5-1.8.8-.3 1.7-.5 2.6-.6.6-.1 1.2-.1 1.9 0zm3.1 3.6c.1 0 .1 0 .2.1z"/><path fill="none" stroke="#18a0fb" stroke-miterlimit="20" d="M35.84 2.745h.3c.9 0 1.8 0 2.7.2 1.3.3 2.5.6 3.6 1.2 1.3.6 2.5 1.4 3.5 2.3.9.9 1.8 1.7 2.5 2.8.4.7.7 1.4 1.1 2.1.3.5.5 1 .6 1.6.2.7.2 1.4.2 2.1 0 .6-.1 1.2-.2 1.8-.3 1.4-.8 2.8-1.6 4-.6 1-1.3 1.9-2 2.8-.7.7-1.3 1.6-2 2.3-.5.6-1 1.1-1.6 1.5-.4.3-.8.6-1.3.9-.9.5-1.9.9-2.9 1.2-1.1.2-2.2.5-3.3.5-1 0-1.9 0-2.9-.3-.9-.3-1.8-.8-2.6-1.4.8 0 1.5 0 2.3-.2 1.4-.3 2.6-.9 3.9-1.4 1-.5 2.1-.9 3.2-1.4.8-.4 1.5-.9 2.1-1.5.5-.5 1-1.1 1.5-1.7.8-1 1.6-2 2.3-3.1.5-.8.9-1.6 1.2-2.5.1-.6.2-1.3.3-1.9 0-.2-.1-.5-.1-.8-.2-.7-.5-1.4-.8-2-.4-.6-.7-1.2-1.2-1.7-.9-1-1.9-1.9-3-2.6-.7-.5-1.5-.8-2.3-1.1-.8-.3-1.6-.5-2.4-.5h-.8c-1.6 0-3.1-.1-4.7-.3-1.6-.2-3.1-.3-4.6-.5 1.5-.7 2.9-1.4 4.5-1.8.8-.3 1.7-.5 2.6-.6.6-.1 1.2-.1 1.9 0zm3.1 3.6c.1 0 .1 0 .2.1z"/></g><g><path fill="#18a0fb" d="M39.83 31.373c.343 0 .77 0 1.113.083.94.166 1.967.416 2.908.749 1.027.416 2.053.832 2.994 1.497.342.25.77.583 1.112.915.342.25.684.583.94.999.514.749 1.113 1.58 1.284 2.496.171.915.428 1.83.342 2.745-.086.749-.342 1.498-.599 2.247a6.952 6.952 0 0 1-.77 1.83c-.77 1.331-2.138 2.08-3.592 2.662h-.086c-.256.333-.513.666-.855.999-.428.499-1.026.998-1.625 1.414-.342.25-.685.499-1.112.665-.257.084-.599.25-.856.333-.684.25-1.454.333-2.224.333-.855 0-1.625-.166-2.395-.333-.684-.25-1.283-.416-1.967-.665-1.283-.416-2.48-.999-3.421-1.914-.343-.333-.685-.665-.941-1.081-.171-.25-.343-.583-.514-.916-.256-.665-.513-1.33-.684-1.996-.17-.75-.342-1.498-.342-2.247 0-.748.086-1.497.257-2.246.17-.416.256-.915.427-1.331.171-.5.342-.915.514-1.331.855-1.747 2.309-3.162 3.934-4.16.77-.5 1.625-.915 2.48-1.165.514-.166 1.027-.333 1.54-.416.685-.166 1.369-.25 2.139-.166zm-.94 2.995c-.855.25-1.71.582-2.566.915-.684.416-1.283.832-1.882 1.331a9.64 9.64 0 0 0-1.197 1.414c-.257.5-.514.999-.685 1.581.086-.166.086-.25.171-.416-.085.333-.17.583-.256.915-.171.666-.257 1.248-.342 1.914.085.416.085.832.17 1.248.172.582.343 1.165.6 1.747.17.333.342.582.598.832.171.166.428.416.684.582.941.5 1.882.832 2.909 1.165.598.167 1.197.25 1.796.333.513 0 1.112-.083 1.71-.167a22.46 22.46 0 0 0 4.192-1.414c.684-.333 1.198-.749 1.796-1.165 0 .167-.085.25-.085.333.256-.25.513-.582.684-.832.342-.665.599-1.33.855-2.08.172-.665.343-1.33.428-1.996 0-.333 0-.583-.085-.916-.171-.499-.257-.998-.514-1.497-.342-.5-.684-.999-1.026-1.415l-1.283-.998c-.77-.416-1.54-.749-2.31-.998a18.738 18.738 0 0 0-2.994-.5c-.513 0-.94.084-1.368.084zm9.324 5.408c.085.083.085.083 0 .083z"/><path fill="none" stroke="#18a0fb" stroke-miterlimit="20" d="M39.83 31.373c.343 0 .77 0 1.113.083.94.166 1.967.416 2.908.749 1.027.416 2.053.832 2.994 1.497.342.25.77.583 1.112.915.342.25.684.583.94.999.514.749 1.113 1.58 1.284 2.496.171.915.428 1.83.342 2.745-.086.749-.342 1.498-.599 2.247a6.952 6.952 0 0 1-.77 1.83c-.77 1.331-2.138 2.08-3.592 2.662h-.086c-.256.333-.513.666-.855.999-.428.499-1.026.998-1.625 1.414-.342.25-.685.499-1.112.665-.257.084-.599.25-.856.333-.684.25-1.454.333-2.224.333-.855 0-1.625-.166-2.395-.333-.684-.25-1.283-.416-1.967-.665-1.283-.416-2.48-.999-3.421-1.914-.343-.333-.685-.665-.941-1.081-.171-.25-.343-.583-.514-.916-.256-.665-.513-1.33-.684-1.996-.17-.75-.342-1.498-.342-2.247 0-.748.086-1.497.257-2.246.17-.416.256-.915.427-1.331.171-.5.342-.915.514-1.331.855-1.747 2.309-3.162 3.934-4.16.77-.5 1.625-.915 2.48-1.165.514-.166 1.027-.333 1.54-.416.685-.166 1.369-.25 2.139-.166zm-.94 2.995c-.855.25-1.71.582-2.566.915-.684.416-1.283.832-1.882 1.331a9.64 9.64 0 0 0-1.197 1.414c-.257.5-.514.999-.685 1.581.086-.166.086-.25.171-.416-.085.333-.17.583-.256.915-.171.666-.257 1.248-.342 1.914.085.416.085.832.17 1.248.172.582.343 1.165.6 1.747.17.333.342.582.598.832.171.166.428.416.684.582.941.5 1.882.832 2.909 1.165.598.167 1.197.25 1.796.333.513 0 1.112-.083 1.71-.167a22.46 22.46 0 0 0 4.192-1.414c.684-.333 1.198-.749 1.796-1.165 0 .167-.085.25-.085.333.256-.25.513-.582.684-.832.342-.665.599-1.33.855-2.08.172-.665.343-1.33.428-1.996 0-.333 0-.583-.085-.916-.171-.499-.257-.998-.514-1.497-.342-.5-.684-.999-1.026-1.415l-1.283-.998c-.77-.416-1.54-.749-2.31-.998a18.738 18.738 0 0 0-2.994-.5c-.513 0-.94.084-1.368.084zm9.324 5.408c.085.083.085.083 0 .083z"/></g></g></g></svg>