<svg width="21" height="20" viewBox="0 0 21 20" fill="none" xmlns="http://www.w3.org/2000/svg">
<path d="M11.75 12.5C11.75 12.9627 11.4986 13.3666 11.125 13.5828V14.375C11.125 14.7202 10.8452 15 10.5 15C10.1548 15 9.875 14.7202 9.875 14.375V13.5828C9.50137 13.3666 9.25 12.9627 9.25 12.5C9.25 11.8096 9.80964 11.25 10.5 11.25C11.1904 11.25 11.75 11.8096 11.75 12.5Z" fill="#2E2E2E"/>
<path fill-rule="evenodd" clip-rule="evenodd" d="M10.3313 2.5C7.6907 2.5 5.55006 4.64064 5.55006 7.28125V7.59991L4.95053 7.5999C4.79478 7.59987 4.62591 7.59983 4.47974 7.61177C4.3143 7.62529 4.09573 7.65874 3.87027 7.77362C3.57039 7.92641 3.32658 8.17023 3.17378 8.47011C3.0589 8.69557 3.02545 8.91414 3.01193 9.07958C2.99972 9.22907 2.99988 9.37932 3.00004 9.52927L3.00007 16.4869C3.00003 16.6427 2.99999 16.8116 3.01193 16.9577C3.02545 17.1232 3.0589 17.3417 3.17378 17.5672C3.32658 17.8671 3.57039 18.1109 3.87027 18.2637C4.09573 18.3786 4.3143 18.412 4.47974 18.4255C4.62906 18.4377 4.77914 18.4376 4.92891 18.4374L15.7121 18.4374C15.8679 18.4375 16.0367 18.4375 16.1829 18.4255C16.3483 18.412 16.5669 18.3786 16.7924 18.2637C17.0923 18.1109 17.3361 17.8671 17.4889 17.5672C17.6037 17.3417 17.6372 17.1232 17.6507 16.9577C17.6627 16.8116 17.6626 16.6427 17.6626 16.487V9.55037C17.6626 9.39462 17.6627 9.22574 17.6507 9.07958C17.6372 8.91414 17.6037 8.69557 17.4889 8.47011C17.3361 8.17023 17.0923 7.92641 16.7924 7.77362C16.5669 7.65874 16.3483 7.62529 16.1829 7.61177C16.0334 7.59955 15.8831 7.59971 15.7332 7.59987L15.1126 7.59991V7.28125C15.1126 4.64064 12.9719 2.5 10.3313 2.5ZM13.2001 7.59991V7.28125C13.2001 5.69688 11.9157 4.4125 10.3313 4.4125C8.74695 4.4125 7.46256 5.69688 7.46256 7.28125V7.59991H13.2001ZM4.91259 16.5249L4.91259 9.51243H15.7501V16.5249H4.91259Z" fill="#2E2E2E"/>
</svg>
