<?xml version="1.0" encoding="utf-8"?>
<!-- Generator: Adobe Illustrator 24.0.1, SVG Export Plug-In . SVG Version: 6.00 Build 0)  -->
<svg version="1.1" id="Layer_1" xmlns="http://www.w3.org/2000/svg" xmlns:xlink="http://www.w3.org/1999/xlink" x="0px" y="0px"
	 viewBox="0 0 132.9 88.5" style="enable-background:new 0 0 132.9 88.5;" xml:space="preserve">
<style type="text/css">
	.st0{fill:#AF2828;}
	.st1{fill:#E74C3C;}
	.st2{fill:#6B6B6B;}
	.st3{fill:#F0F0F0;}
	.st4{fill:#39C790;}
	.st5{fill:none;stroke:#262626;stroke-width:2;stroke-linecap:round;stroke-linejoin:round;}
	.st6{fill:#00BD86;}
</style>
<title>Asset 5</title>
<g id="Layer_2_1_">
	<g id="Layer_1-2">
		<g id="avocado">
			<polyline class="st0" points="131.1,81.6 127.2,88.5 12.2,38.9 15.9,32.5 			"/>
			<polyline class="st1" points="15.9,32.5 19.3,26.6 132.9,75.8 131.1,81.6 			"/>
			<polygon class="st2" points="0,26.9 10,27 6.2,33.6 			"/>
			<polygon class="st3" points="10,27 19.3,26.6 12.7,39.8 6.2,33.6 			"/>
			<path class="st4" d="M95.3,70.6l2.5,0.4c0,0,0.8-6.2-0.4-8c-1.2-1.8-3.1-3-4.8-1.4c0,0-0.9-3.8-3.4-3.5c-1.2,0.2-2.3,0.6-3.2,1.4
				c0,0-1.1-3.2-4-2.8c-2.3,0.3-2.8,1.6-2.8,1.6s-1.5-2-4.8-0.4c-1.6,0.8-2,3.3-0.4,6.1C75.2,66.3,95.3,70.6,95.3,70.6z"/>
			<path class="st4" d="M97.7,67.8c-2.7-2.4-5.9-4.1-9.3-5.2c-6-2-13.9-5.2-14.6-0.7s9.3,14.2,17.6,14.3S97.7,67.8,97.7,67.8z"/>
			<line class="st5" x1="91.8" y1="63.8" x2="92.1" y2="74.9"/>
			<line class="st5" x1="84.9" y1="61.8" x2="85.4" y2="73.4"/>
			<line class="st5" x1="78.8" y1="60.7" x2="79" y2="68.5"/>
		</g>
		<path class="st6" d="M24.8,5.2c-2.9-1.1-6.9-4.2-9.8-5.2c-0.6-0.2-1.2,0.1-1.4,0.7c0,0,0,0,0,0l-2.2,11.7
			c-0.2,0.6,0.2,1.2,0.7,1.3c0.3,0.1,0.6,0,0.8-0.1l12-6.5c0.5-0.3,0.7-0.9,0.4-1.5C25.3,5.5,25.1,5.3,24.8,5.2z"/>
	</g>
</g>
</svg>
